<svg xmlns="http://www.w3.org/2000/svg" version="1.1" xmlns:xlink="http://www.w3.org/1999/xlink" xmlns:svgjs="http://svgjs.com/svgjs" width="1980" height="1200" preserveAspectRatio="none" viewBox="0 0 1980 1200"><g mask="url(&quot;#SvgjsMask1266&quot;)" fill="none"><rect width="1980" height="1200" x="0" y="0" fill="rgba(272, 218, 119, 0.9)"></rect><path d="M108.99 728.12L173.95 765.62L173.95 840.62L108.99 878.12L44.04 840.62L44.04 765.62zM173.95 -59.38L238.9 -21.88L238.9 53.12L173.95 90.62L108.99 53.12L108.99 -21.88zM173.95 165.62L238.9 203.12L238.9 278.12L173.95 315.62L108.99 278.12L108.99 203.12zM173.95 390.62L238.9 428.12L238.9 503.12L173.95 540.62L108.99 503.12L108.99 428.12zM173.95 840.62L238.9 878.12L238.9 953.12L173.95 990.62L108.99 953.12L108.99 878.12zM173.95 1065.62L238.9 1103.12L238.9 1178.12L173.95 1215.62L108.99 1178.12L108.99 1103.12zM303.86 165.62L368.81 203.12L368.81 278.12L303.86 315.62L238.9 278.12L238.9 203.12zM303.86 615.62L368.81 653.12L368.81 728.12L303.86 765.62L238.9 728.12L238.9 653.12zM303.86 840.62L368.81 878.12L368.81 953.12L303.86 990.62L238.9 953.12L238.9 878.12zM433.76 615.62L498.72 653.12L498.72 728.12L433.76 765.62L368.81 728.12L368.81 653.12zM498.72 1178.12L563.67 1215.62L563.67 1290.62L498.72 1328.12L433.76 1290.62L433.76 1215.62zM563.67 165.62L628.62 203.12L628.62 278.12L563.67 315.62L498.72 278.12L498.72 203.12zM628.62 278.12L693.58 315.62L693.58 390.62L628.62 428.12L563.67 390.62L563.67 315.62zM628.62 728.12L693.58 765.62L693.58 840.62L628.62 878.12L563.67 840.62L563.67 765.62zM693.58 840.62L758.53 878.12L758.53 953.12L693.58 990.62L628.62 953.12L628.62 878.12zM823.48 390.62L888.44 428.12L888.44 503.12L823.48 540.62L758.53 503.12L758.53 428.12zM888.44 503.12L953.39 540.62L953.39 615.62L888.44 653.12L823.48 615.62L823.48 540.62zM1018.35 53.12L1083.3 90.62L1083.3 165.62L1018.35 203.12L953.39 165.62L953.39 90.62zM1018.35 728.12L1083.3 765.62L1083.3 840.62L1018.35 878.12L953.39 840.62L953.39 765.62zM1083.3 -59.38L1148.25 -21.88L1148.25 53.12L1083.3 90.62L1018.35 53.12L1018.35 -21.88zM1083.3 165.62L1148.25 203.12L1148.25 278.12L1083.3 315.62L1018.35 278.12L1018.35 203.12zM1148.25 278.12L1213.21 315.62L1213.21 390.62L1148.25 428.12L1083.3 390.62L1083.3 315.62zM1083.3 1065.62L1148.25 1103.12L1148.25 1178.12L1083.3 1215.62L1018.35 1178.12L1018.35 1103.12zM1343.12 390.62L1408.07 428.12L1408.07 503.12L1343.12 540.62L1278.16 503.12L1278.16 428.12zM1797.79 503.12L1862.74 540.62L1862.74 615.62L1797.79 653.12L1732.84 615.62L1732.84 540.62zM1732.84 840.62L1797.79 878.12L1797.79 953.12L1732.84 990.62L1667.88 953.12L1667.88 878.12zM1927.7 278.12L1992.65 315.62L1992.65 390.62L1927.7 428.12L1862.74 390.62L1862.74 315.62zM2057.61 278.12L2122.56 315.62L2122.56 390.62L2057.61 428.12L1992.65 390.62L1992.65 315.62z" stroke="rgba(232, 143, 69, 1)" stroke-width="2"></path><path d="M101.49 728.12 a7.5 7.5 0 1 0 15 0 a7.5 7.5 0 1 0 -15 0zM166.45 765.62 a7.5 7.5 0 1 0 15 0 a7.5 7.5 0 1 0 -15 0zM166.45 840.62 a7.5 7.5 0 1 0 15 0 a7.5 7.5 0 1 0 -15 0zM101.49 878.12 a7.5 7.5 0 1 0 15 0 a7.5 7.5 0 1 0 -15 0zM36.54 840.62 a7.5 7.5 0 1 0 15 0 a7.5 7.5 0 1 0 -15 0zM36.54 765.62 a7.5 7.5 0 1 0 15 0 a7.5 7.5 0 1 0 -15 0zM166.45 -59.38 a7.5 7.5 0 1 0 15 0 a7.5 7.5 0 1 0 -15 0zM231.4 -21.88 a7.5 7.5 0 1 0 15 0 a7.5 7.5 0 1 0 -15 0zM231.4 53.12 a7.5 7.5 0 1 0 15 0 a7.5 7.5 0 1 0 -15 0zM166.45 90.62 a7.5 7.5 0 1 0 15 0 a7.5 7.5 0 1 0 -15 0zM101.49 53.12 a7.5 7.5 0 1 0 15 0 a7.5 7.5 0 1 0 -15 0zM101.49 -21.88 a7.5 7.5 0 1 0 15 0 a7.5 7.5 0 1 0 -15 0zM166.45 165.62 a7.5 7.5 0 1 0 15 0 a7.5 7.5 0 1 0 -15 0zM231.4 203.12 a7.5 7.5 0 1 0 15 0 a7.5 7.5 0 1 0 -15 0zM231.4 278.12 a7.5 7.5 0 1 0 15 0 a7.5 7.5 0 1 0 -15 0zM166.45 315.62 a7.5 7.5 0 1 0 15 0 a7.5 7.5 0 1 0 -15 0zM101.49 278.12 a7.5 7.5 0 1 0 15 0 a7.5 7.5 0 1 0 -15 0zM101.49 203.12 a7.5 7.5 0 1 0 15 0 a7.5 7.5 0 1 0 -15 0zM166.45 390.62 a7.5 7.5 0 1 0 15 0 a7.5 7.5 0 1 0 -15 0zM231.4 428.12 a7.5 7.5 0 1 0 15 0 a7.5 7.5 0 1 0 -15 0zM231.4 503.12 a7.5 7.5 0 1 0 15 0 a7.5 7.5 0 1 0 -15 0zM166.45 540.62 a7.5 7.5 0 1 0 15 0 a7.5 7.5 0 1 0 -15 0zM101.49 503.12 a7.5 7.5 0 1 0 15 0 a7.5 7.5 0 1 0 -15 0zM101.49 428.12 a7.5 7.5 0 1 0 15 0 a7.5 7.5 0 1 0 -15 0zM231.4 878.12 a7.5 7.5 0 1 0 15 0 a7.5 7.5 0 1 0 -15 0zM231.4 953.12 a7.5 7.5 0 1 0 15 0 a7.5 7.5 0 1 0 -15 0zM166.45 990.62 a7.5 7.5 0 1 0 15 0 a7.5 7.5 0 1 0 -15 0zM101.49 953.12 a7.5 7.5 0 1 0 15 0 a7.5 7.5 0 1 0 -15 0zM166.45 1065.62 a7.5 7.5 0 1 0 15 0 a7.5 7.5 0 1 0 -15 0zM231.4 1103.12 a7.5 7.5 0 1 0 15 0 a7.5 7.5 0 1 0 -15 0zM231.4 1178.12 a7.5 7.5 0 1 0 15 0 a7.5 7.5 0 1 0 -15 0zM166.45 1215.62 a7.5 7.5 0 1 0 15 0 a7.5 7.5 0 1 0 -15 0zM101.49 1178.12 a7.5 7.5 0 1 0 15 0 a7.5 7.5 0 1 0 -15 0zM101.49 1103.12 a7.5 7.5 0 1 0 15 0 a7.5 7.5 0 1 0 -15 0zM296.36 165.62 a7.5 7.5 0 1 0 15 0 a7.5 7.5 0 1 0 -15 0zM361.31 203.12 a7.5 7.5 0 1 0 15 0 a7.5 7.5 0 1 0 -15 0zM361.31 278.12 a7.5 7.5 0 1 0 15 0 a7.5 7.5 0 1 0 -15 0zM296.36 315.62 a7.5 7.5 0 1 0 15 0 a7.5 7.5 0 1 0 -15 0zM296.36 615.62 a7.5 7.5 0 1 0 15 0 a7.5 7.5 0 1 0 -15 0zM361.31 653.12 a7.5 7.5 0 1 0 15 0 a7.5 7.5 0 1 0 -15 0zM361.31 728.12 a7.5 7.5 0 1 0 15 0 a7.5 7.5 0 1 0 -15 0zM296.36 765.62 a7.5 7.5 0 1 0 15 0 a7.5 7.5 0 1 0 -15 0zM231.4 728.12 a7.5 7.5 0 1 0 15 0 a7.5 7.5 0 1 0 -15 0zM231.4 653.12 a7.5 7.5 0 1 0 15 0 a7.5 7.5 0 1 0 -15 0zM296.36 840.62 a7.5 7.5 0 1 0 15 0 a7.5 7.5 0 1 0 -15 0zM361.31 878.12 a7.5 7.5 0 1 0 15 0 a7.5 7.5 0 1 0 -15 0zM361.31 953.12 a7.5 7.5 0 1 0 15 0 a7.5 7.5 0 1 0 -15 0zM296.36 990.62 a7.5 7.5 0 1 0 15 0 a7.5 7.5 0 1 0 -15 0zM426.26 615.62 a7.5 7.5 0 1 0 15 0 a7.5 7.5 0 1 0 -15 0zM491.22 653.12 a7.5 7.5 0 1 0 15 0 a7.5 7.5 0 1 0 -15 0zM491.22 728.12 a7.5 7.5 0 1 0 15 0 a7.5 7.5 0 1 0 -15 0zM426.26 765.62 a7.5 7.5 0 1 0 15 0 a7.5 7.5 0 1 0 -15 0zM491.22 1178.12 a7.5 7.5 0 1 0 15 0 a7.5 7.5 0 1 0 -15 0zM556.17 1215.62 a7.5 7.5 0 1 0 15 0 a7.5 7.5 0 1 0 -15 0zM556.17 1290.62 a7.5 7.5 0 1 0 15 0 a7.5 7.5 0 1 0 -15 0zM491.22 1328.12 a7.5 7.5 0 1 0 15 0 a7.5 7.5 0 1 0 -15 0zM426.26 1290.62 a7.5 7.5 0 1 0 15 0 a7.5 7.5 0 1 0 -15 0zM426.26 1215.62 a7.5 7.5 0 1 0 15 0 a7.5 7.5 0 1 0 -15 0zM556.17 165.62 a7.5 7.5 0 1 0 15 0 a7.5 7.5 0 1 0 -15 0zM621.12 203.12 a7.5 7.5 0 1 0 15 0 a7.5 7.5 0 1 0 -15 0zM621.12 278.12 a7.5 7.5 0 1 0 15 0 a7.5 7.5 0 1 0 -15 0zM556.17 315.62 a7.5 7.5 0 1 0 15 0 a7.5 7.5 0 1 0 -15 0zM491.22 278.12 a7.5 7.5 0 1 0 15 0 a7.5 7.5 0 1 0 -15 0zM491.22 203.12 a7.5 7.5 0 1 0 15 0 a7.5 7.5 0 1 0 -15 0zM686.08 315.62 a7.5 7.5 0 1 0 15 0 a7.5 7.5 0 1 0 -15 0zM686.08 390.62 a7.5 7.5 0 1 0 15 0 a7.5 7.5 0 1 0 -15 0zM621.12 428.12 a7.5 7.5 0 1 0 15 0 a7.5 7.5 0 1 0 -15 0zM556.17 390.62 a7.5 7.5 0 1 0 15 0 a7.5 7.5 0 1 0 -15 0zM621.12 728.12 a7.5 7.5 0 1 0 15 0 a7.5 7.5 0 1 0 -15 0zM686.08 765.62 a7.5 7.5 0 1 0 15 0 a7.5 7.5 0 1 0 -15 0zM686.08 840.62 a7.5 7.5 0 1 0 15 0 a7.5 7.5 0 1 0 -15 0zM621.12 878.12 a7.5 7.5 0 1 0 15 0 a7.5 7.5 0 1 0 -15 0zM556.17 840.62 a7.5 7.5 0 1 0 15 0 a7.5 7.5 0 1 0 -15 0zM556.17 765.62 a7.5 7.5 0 1 0 15 0 a7.5 7.5 0 1 0 -15 0zM751.03 878.12 a7.5 7.5 0 1 0 15 0 a7.5 7.5 0 1 0 -15 0zM751.03 953.12 a7.5 7.5 0 1 0 15 0 a7.5 7.5 0 1 0 -15 0zM686.08 990.62 a7.5 7.5 0 1 0 15 0 a7.5 7.5 0 1 0 -15 0zM621.12 953.12 a7.5 7.5 0 1 0 15 0 a7.5 7.5 0 1 0 -15 0zM815.98 390.62 a7.5 7.5 0 1 0 15 0 a7.5 7.5 0 1 0 -15 0zM880.94 428.12 a7.5 7.5 0 1 0 15 0 a7.5 7.5 0 1 0 -15 0zM880.94 503.12 a7.5 7.5 0 1 0 15 0 a7.5 7.5 0 1 0 -15 0zM815.98 540.62 a7.5 7.5 0 1 0 15 0 a7.5 7.5 0 1 0 -15 0zM751.03 503.12 a7.5 7.5 0 1 0 15 0 a7.5 7.5 0 1 0 -15 0zM751.03 428.12 a7.5 7.5 0 1 0 15 0 a7.5 7.5 0 1 0 -15 0zM945.89 540.62 a7.5 7.5 0 1 0 15 0 a7.5 7.5 0 1 0 -15 0zM945.89 615.62 a7.5 7.5 0 1 0 15 0 a7.5 7.5 0 1 0 -15 0zM880.94 653.12 a7.5 7.5 0 1 0 15 0 a7.5 7.5 0 1 0 -15 0zM815.98 615.62 a7.5 7.5 0 1 0 15 0 a7.5 7.5 0 1 0 -15 0zM1010.85 53.12 a7.5 7.5 0 1 0 15 0 a7.5 7.5 0 1 0 -15 0zM1075.8 90.62 a7.5 7.5 0 1 0 15 0 a7.5 7.5 0 1 0 -15 0zM1075.8 165.62 a7.5 7.5 0 1 0 15 0 a7.5 7.5 0 1 0 -15 0zM1010.85 203.12 a7.5 7.5 0 1 0 15 0 a7.5 7.5 0 1 0 -15 0zM945.89 165.62 a7.5 7.5 0 1 0 15 0 a7.5 7.5 0 1 0 -15 0zM945.89 90.62 a7.5 7.5 0 1 0 15 0 a7.5 7.5 0 1 0 -15 0zM1010.85 728.12 a7.5 7.5 0 1 0 15 0 a7.5 7.5 0 1 0 -15 0zM1075.8 765.62 a7.5 7.5 0 1 0 15 0 a7.5 7.5 0 1 0 -15 0zM1075.8 840.62 a7.5 7.5 0 1 0 15 0 a7.5 7.5 0 1 0 -15 0zM1010.85 878.12 a7.5 7.5 0 1 0 15 0 a7.5 7.5 0 1 0 -15 0zM945.89 840.62 a7.5 7.5 0 1 0 15 0 a7.5 7.5 0 1 0 -15 0zM945.89 765.62 a7.5 7.5 0 1 0 15 0 a7.5 7.5 0 1 0 -15 0zM1075.8 -59.38 a7.5 7.5 0 1 0 15 0 a7.5 7.5 0 1 0 -15 0zM1140.75 -21.88 a7.5 7.5 0 1 0 15 0 a7.5 7.5 0 1 0 -15 0zM1140.75 53.12 a7.5 7.5 0 1 0 15 0 a7.5 7.5 0 1 0 -15 0zM1010.85 -21.88 a7.5 7.5 0 1 0 15 0 a7.5 7.5 0 1 0 -15 0zM1140.75 203.12 a7.5 7.5 0 1 0 15 0 a7.5 7.5 0 1 0 -15 0zM1140.75 278.12 a7.5 7.5 0 1 0 15 0 a7.5 7.5 0 1 0 -15 0zM1075.8 315.62 a7.5 7.5 0 1 0 15 0 a7.5 7.5 0 1 0 -15 0zM1010.85 278.12 a7.5 7.5 0 1 0 15 0 a7.5 7.5 0 1 0 -15 0zM1205.71 315.62 a7.5 7.5 0 1 0 15 0 a7.5 7.5 0 1 0 -15 0zM1205.71 390.62 a7.5 7.5 0 1 0 15 0 a7.5 7.5 0 1 0 -15 0zM1140.75 428.12 a7.5 7.5 0 1 0 15 0 a7.5 7.5 0 1 0 -15 0zM1075.8 390.62 a7.5 7.5 0 1 0 15 0 a7.5 7.5 0 1 0 -15 0zM1075.8 1065.62 a7.5 7.5 0 1 0 15 0 a7.5 7.5 0 1 0 -15 0zM1140.75 1103.12 a7.5 7.5 0 1 0 15 0 a7.5 7.5 0 1 0 -15 0zM1140.75 1178.12 a7.5 7.5 0 1 0 15 0 a7.5 7.5 0 1 0 -15 0zM1075.8 1215.62 a7.5 7.5 0 1 0 15 0 a7.5 7.5 0 1 0 -15 0zM1010.85 1178.12 a7.5 7.5 0 1 0 15 0 a7.5 7.5 0 1 0 -15 0zM1010.85 1103.12 a7.5 7.5 0 1 0 15 0 a7.5 7.5 0 1 0 -15 0zM1335.62 390.62 a7.5 7.5 0 1 0 15 0 a7.5 7.5 0 1 0 -15 0zM1400.57 428.12 a7.5 7.5 0 1 0 15 0 a7.5 7.5 0 1 0 -15 0zM1400.57 503.12 a7.5 7.5 0 1 0 15 0 a7.5 7.5 0 1 0 -15 0zM1335.62 540.62 a7.5 7.5 0 1 0 15 0 a7.5 7.5 0 1 0 -15 0zM1270.66 503.12 a7.5 7.5 0 1 0 15 0 a7.5 7.5 0 1 0 -15 0zM1270.66 428.12 a7.5 7.5 0 1 0 15 0 a7.5 7.5 0 1 0 -15 0zM1790.29 503.12 a7.5 7.5 0 1 0 15 0 a7.5 7.5 0 1 0 -15 0zM1855.24 540.62 a7.5 7.5 0 1 0 15 0 a7.5 7.5 0 1 0 -15 0zM1855.24 615.62 a7.5 7.5 0 1 0 15 0 a7.5 7.5 0 1 0 -15 0zM1790.29 653.12 a7.5 7.5 0 1 0 15 0 a7.5 7.5 0 1 0 -15 0zM1725.34 615.62 a7.5 7.5 0 1 0 15 0 a7.5 7.5 0 1 0 -15 0zM1725.34 540.62 a7.5 7.5 0 1 0 15 0 a7.5 7.5 0 1 0 -15 0zM1725.34 840.62 a7.5 7.5 0 1 0 15 0 a7.5 7.5 0 1 0 -15 0zM1790.29 878.12 a7.5 7.5 0 1 0 15 0 a7.5 7.5 0 1 0 -15 0zM1790.29 953.12 a7.5 7.5 0 1 0 15 0 a7.5 7.5 0 1 0 -15 0zM1725.34 990.62 a7.5 7.5 0 1 0 15 0 a7.5 7.5 0 1 0 -15 0zM1660.38 953.12 a7.5 7.5 0 1 0 15 0 a7.5 7.5 0 1 0 -15 0zM1660.38 878.12 a7.5 7.5 0 1 0 15 0 a7.5 7.5 0 1 0 -15 0zM1920.2 278.12 a7.5 7.5 0 1 0 15 0 a7.5 7.5 0 1 0 -15 0zM1985.15 315.62 a7.5 7.5 0 1 0 15 0 a7.5 7.5 0 1 0 -15 0zM1985.15 390.62 a7.5 7.5 0 1 0 15 0 a7.5 7.5 0 1 0 -15 0zM1920.2 428.12 a7.5 7.5 0 1 0 15 0 a7.5 7.5 0 1 0 -15 0zM1855.24 390.62 a7.5 7.5 0 1 0 15 0 a7.5 7.5 0 1 0 -15 0zM1855.24 315.62 a7.5 7.5 0 1 0 15 0 a7.5 7.5 0 1 0 -15 0zM2050.11 278.12 a7.5 7.5 0 1 0 15 0 a7.5 7.5 0 1 0 -15 0zM2115.06 315.62 a7.5 7.5 0 1 0 15 0 a7.5 7.5 0 1 0 -15 0zM2115.06 390.62 a7.5 7.5 0 1 0 15 0 a7.5 7.5 0 1 0 -15 0zM2050.11 428.12 a7.5 7.5 0 1 0 15 0 a7.5 7.5 0 1 0 -15 0z" fill="rgba(232, 143, 69, 1)"></path><path d="M62.88 473.25L105.31 497.75L105.31 546.75L62.88 571.25L20.44 546.75L20.44 497.75zM20.44 546.75L62.88 571.25L62.88 620.25L20.44 644.75L-22 620.25L-22 571.25zM62.88 767.25L105.31 791.75L105.31 840.75L62.88 865.25L20.44 840.75L20.44 791.75zM62.88 1061.25L105.31 1085.75L105.31 1134.75L62.88 1159.25L20.44 1134.75L20.44 1085.75zM105.31 105.75L147.75 130.25L147.75 179.25L105.31 203.75L62.88 179.25L62.88 130.25zM147.75 326.25L190.19 350.75L190.19 399.75L147.75 424.25L105.31 399.75L105.31 350.75zM105.31 546.75L147.75 571.25L147.75 620.25L105.31 644.75L62.88 620.25L62.88 571.25zM190.19 399.75L232.62 424.25L232.62 473.25L190.19 497.75L147.75 473.25L147.75 424.25zM232.62 767.25L275.06 791.75L275.06 840.75L232.62 865.25L190.19 840.75L190.19 791.75zM232.62 914.25L275.06 938.75L275.06 987.75L232.62 1012.25L190.19 987.75L190.19 938.75zM317.5 767.25L359.93 791.75L359.93 840.75L317.5 865.25L275.06 840.75L275.06 791.75zM317.5 1061.25L359.93 1085.75L359.93 1134.75L317.5 1159.25L275.06 1134.75L275.06 1085.75zM402.37 326.25L444.8 350.75L444.8 399.75L402.37 424.25L359.93 399.75L359.93 350.75zM402.37 914.25L444.8 938.75L444.8 987.75L402.37 1012.25L359.93 987.75L359.93 938.75zM529.68 -41.25L572.11 -16.75L572.11 32.25L529.68 56.75L487.24 32.25L487.24 -16.75zM529.68 399.75L572.11 424.25L572.11 473.25L529.68 497.75L487.24 473.25L487.24 424.25zM529.68 693.75L572.11 718.25L572.11 767.25L529.68 791.75L487.24 767.25L487.24 718.25zM656.99 32.25L699.42 56.75L699.42 105.75L656.99 130.25L614.55 105.75L614.55 56.75zM656.99 473.25L699.42 497.75L699.42 546.75L656.99 571.25L614.55 546.75L614.55 497.75zM699.42 105.75L741.86 130.25L741.86 179.25L699.42 203.75L656.99 179.25L656.99 130.25zM741.86 179.25L784.3 203.75L784.3 252.75L741.86 277.25L699.42 252.75L699.42 203.75zM784.3 399.75L826.73 424.25L826.73 473.25L784.3 497.75L741.86 473.25L741.86 424.25zM826.73 473.25L869.17 497.75L869.17 546.75L826.73 571.25L784.3 546.75L784.3 497.75zM826.73 620.25L869.17 644.75L869.17 693.75L826.73 718.25L784.3 693.75L784.3 644.75zM826.73 1061.25L869.17 1085.75L869.17 1134.75L826.73 1159.25L784.3 1134.75L784.3 1085.75zM911.61 1061.25L954.04 1085.75L954.04 1134.75L911.61 1159.25L869.17 1134.75L869.17 1085.75zM954.04 -41.25L996.48 -16.75L996.48 32.25L954.04 56.75L911.61 32.25L911.61 -16.75zM954.04 399.75L996.48 424.25L996.48 473.25L954.04 497.75L911.61 473.25L911.61 424.25zM954.04 693.75L996.48 718.25L996.48 767.25L954.04 791.75L911.61 767.25L911.61 718.25zM1038.91 252.75L1081.35 277.25L1081.35 326.25L1038.91 350.75L996.48 326.25L996.48 277.25zM1081.35 473.25L1123.79 497.75L1123.79 546.75L1081.35 571.25L1038.91 546.75L1038.91 497.75zM1123.79 399.75L1166.22 424.25L1166.22 473.25L1123.79 497.75L1081.35 473.25L1081.35 424.25zM1166.22 914.25L1208.66 938.75L1208.66 987.75L1166.22 1012.25L1123.79 987.75L1123.79 938.75zM1166.22 1061.25L1208.66 1085.75L1208.66 1134.75L1166.22 1159.25L1123.79 1134.75L1123.79 1085.75zM1208.66 252.75L1251.1 277.25L1251.1 326.25L1208.66 350.75L1166.22 326.25L1166.22 277.25zM1251.1 620.25L1293.53 644.75L1293.53 693.75L1251.1 718.25L1208.66 693.75L1208.66 644.75zM1293.53 -41.25L1335.97 -16.75L1335.97 32.25L1293.53 56.75L1251.1 32.25L1251.1 -16.75zM1335.97 32.25L1378.41 56.75L1378.41 105.75L1335.97 130.25L1293.53 105.75L1293.53 56.75zM1293.53 693.75L1335.97 718.25L1335.97 767.25L1293.53 791.75L1251.1 767.25L1251.1 718.25zM1420.84 32.25L1463.28 56.75L1463.28 105.75L1420.84 130.25L1378.41 105.75L1378.41 56.75zM1378.41 546.75L1420.84 571.25L1420.84 620.25L1378.41 644.75L1335.97 620.25L1335.97 571.25zM1463.28 105.75L1505.72 130.25L1505.72 179.25L1463.28 203.75L1420.84 179.25L1420.84 130.25zM1590.59 473.25L1633.03 497.75L1633.03 546.75L1590.59 571.25L1548.15 546.75L1548.15 497.75zM1675.46 1061.25L1717.9 1085.75L1717.9 1134.75L1675.46 1159.25L1633.03 1134.75L1633.03 1085.75zM1760.33 326.25L1802.77 350.75L1802.77 399.75L1760.33 424.25L1717.9 399.75L1717.9 350.75zM1930.08 32.25L1972.52 56.75L1972.52 105.75L1930.08 130.25L1887.64 105.75L1887.64 56.75zM1887.64 105.75L1930.08 130.25L1930.08 179.25L1887.64 203.75L1845.21 179.25L1845.21 130.25zM1887.64 693.75L1930.08 718.25L1930.08 767.25L1887.64 791.75L1845.21 767.25L1845.21 718.25zM1887.64 840.75L1930.08 865.25L1930.08 914.25L1887.64 938.75L1845.21 914.25L1845.21 865.25zM1972.52 -41.25L2014.95 -16.75L2014.95 32.25L1972.52 56.75L1930.08 32.25L1930.08 -16.75zM1972.52 399.75L2014.95 424.25L2014.95 473.25L1972.52 497.75L1930.08 473.25L1930.08 424.25zM2014.95 473.25L2057.39 497.75L2057.39 546.75L2014.95 571.25L1972.52 546.75L1972.52 497.75z" stroke="rgba(220, 177, 32, 0.93)" stroke-width="2"></path></g><defs><mask id="SvgjsMask1266"><rect width="1980" height="1200" fill="#ffffff"></rect></mask></defs></svg>